<?xml version="1.0" standalone="no"?>
<!DOCTYPE svg PUBLIC "-//W3C//DTD SVG 20010904//EN"
 "http://www.w3.org/TR/2001/REC-SVG-20010904/DTD/svg10.dtd">
<svg version="1.0" xmlns="http://www.w3.org/2000/svg"
 width="736.000000pt" height="736.000000pt" viewBox="0 0 736.000000 736.000000"
 preserveAspectRatio="xMidYMid meet">

<g transform="translate(0.000000,736.000000) scale(0.100000,-0.100000)"
fill="#000000" stroke="none">
<path d="M3925 6271 c-98 -27 -279 -116 -332 -163 -10 -9 -43 -20 -73 -24
-120 -16 -209 -115 -214 -241 -1 -23 -15 -46 -52 -85 -61 -65 -114 -171 -129
-258 l-10 -65 -40 0 -40 0 -16 75 c-24 109 -58 178 -126 251 -42 44 -62 75
-67 100 -21 116 -108 193 -230 206 -61 6 -97 -4 -163 -49 -90 -60 -121 -202
-67 -304 53 -101 108 -134 221 -134 83 0 130 18 182 71 30 29 33 30 50 15 23
-21 78 -139 86 -187 l7 -37 -51 -7 c-28 -4 -53 -11 -57 -16 -3 -5 -16 -9 -30
-9 -14 0 -45 -9 -70 -20 -24 -11 -77 -25 -116 -30 -103 -13 -144 -27 -202 -66
-28 -19 -60 -34 -71 -34 -32 -1 -126 -43 -180 -82 -27 -20 -74 -48 -103 -62
-62 -31 -127 -87 -145 -125 -6 -14 -39 -44 -73 -66 -71 -47 -110 -91 -144
-160 -23 -48 -48 -89 -80 -127 -8 -10 -24 -48 -35 -84 -20 -64 -22 -66 -70
-86 -79 -32 -128 -59 -160 -88 -16 -15 -43 -34 -60 -42 -90 -45 -154 -96 -155
-124 0 -6 -13 -29 -28 -50 -115 -159 -118 -164 -132 -294 -4 -41 -16 -102 -25
-135 -22 -74 -22 -162 -1 -239 15 -55 45 -131 67 -166 5 -8 16 -28 25 -45 24
-43 94 -101 214 -173 65 -40 120 -53 254 -61 l99 -6 23 -42 c12 -23 31 -54 43
-69 12 -15 21 -32 21 -38 0 -6 29 -36 65 -66 35 -30 65 -59 65 -63 0 -4 -8
-11 -18 -14 -39 -15 -85 -60 -137 -134 -31 -44 -59 -79 -63 -79 -11 0 -40 -59
-58 -120 -11 -34 -17 -95 -18 -161 -1 -102 1 -108 34 -174 19 -37 56 -91 82
-119 26 -28 48 -54 48 -58 0 -20 121 -93 194 -118 44 -15 105 -37 134 -49 43
-17 68 -20 145 -17 121 5 236 24 266 43 22 14 25 14 37 -1 47 -64 176 -192
214 -211 45 -22 178 -53 261 -59 24 -2 69 -14 99 -26 47 -19 73 -23 175 -22
80 0 137 5 170 16 28 9 62 16 77 16 38 0 106 28 145 59 66 53 91 71 101 71 5
0 49 38 98 85 49 47 96 90 105 95 10 6 30 2 58 -11 79 -35 203 -45 501 -42
117 1 193 7 262 21 53 11 108 17 122 15 13 -3 46 2 73 10 26 9 72 20 101 26
30 6 77 22 105 35 29 14 68 27 87 30 31 5 59 20 112 58 13 10 26 7 68 -15 36
-19 86 -32 164 -43 61 -9 119 -20 128 -25 26 -14 108 -11 193 7 42 9 86 13 98
10 12 -2 52 1 89 8 81 15 142 54 244 152 53 53 73 80 83 114 7 25 21 60 31 77
31 53 50 178 44 289 -6 139 -10 153 -54 235 -22 39 -40 75 -40 79 0 4 -20 27
-45 51 -40 39 -44 48 -39 77 12 65 -5 138 -44 189 -66 85 -65 84 -18 135 29
32 52 47 78 52 64 12 151 61 187 106 46 57 55 97 41 180 -11 66 -14 70 -81
134 -38 37 -87 92 -110 124 -116 161 -258 245 -434 255 -64 4 -75 11 -51 35
35 36 85 110 92 136 3 14 10 29 15 32 14 9 69 134 69 158 0 12 9 46 20 76 37
100 53 256 46 451 -5 141 -3 187 10 235 20 78 21 225 1 290 -43 145 -148 255
-279 293 -169 50 -262 56 -458 28 -119 -17 -151 -26 -310 -85 -148 -55 -281
-139 -378 -240 -34 -36 -65 -63 -67 -60 -3 3 -12 45 -21 94 -23 133 -48 198
-110 286 -41 58 -68 117 -85 188 -23 96 -94 185 -175 222 -68 30 -195 34 -289
9z m225 -103 c71 -27 116 -87 140 -190 7 -29 22 -70 32 -93 21 -44 76 -137 87
-145 3 -3 14 -27 24 -55 61 -166 75 -322 36 -392 -65 -115 -105 -200 -101
-211 6 -18 -16 -6 -87 47 -30 23 -64 41 -76 41 -11 0 -48 19 -80 43 -33 23
-76 50 -95 58 -58 27 -192 80 -232 92 l-37 11 1 85 c1 61 -3 100 -16 135 -18
48 -18 48 6 75 27 29 52 81 62 127 14 64 -40 199 -94 232 -11 7 -20 16 -20 21
0 12 142 79 215 101 133 40 168 43 235 18z m-496 -213 c60 -53 68 -143 18
-199 -22 -24 -96 -56 -131 -56 -43 0 -102 67 -108 124 -12 101 33 143 177 164
3 1 23 -14 44 -33z m-977 -17 c42 -29 57 -66 50 -124 -4 -36 -13 -55 -41 -83
-35 -34 -40 -36 -98 -34 -54 1 -65 5 -91 32 -26 25 -31 40 -35 89 -4 57 -3 60
35 100 37 39 44 42 93 42 39 0 63 -6 87 -22z m3032 -188 c146 -27 252 -120
285 -250 16 -64 11 -182 -12 -275 -16 -64 -19 -95 -13 -145 11 -91 4 -282 -14
-365 -9 -38 -17 -84 -19 -100 -1 -17 -8 -40 -14 -51 -6 -11 -23 -56 -38 -100
-15 -43 -35 -91 -45 -106 -11 -14 -19 -30 -19 -35 -1 -32 -204 -256 -270 -298
-77 -49 -104 -115 -55 -137 21 -9 31 -7 67 17 24 16 52 37 63 46 82 69 223 98
315 66 148 -52 218 -100 281 -191 19 -28 69 -85 113 -127 70 -69 79 -82 83
-122 4 -36 1 -52 -16 -75 -27 -38 -109 -89 -161 -101 -25 -5 -62 -28 -97 -58
-68 -58 -150 -106 -212 -123 -23 -6 -89 -13 -145 -15 -102 -4 -105 -4 -291 47
-60 17 -136 68 -130 88 24 77 -2 403 -38 478 -7 15 -12 34 -10 44 6 26 -50
138 -100 200 -26 31 -47 61 -47 66 0 18 -93 113 -129 132 -20 10 -66 38 -103
63 -37 25 -76 48 -87 52 -14 4 -22 18 -27 43 -16 95 -54 200 -85 237 -9 11
-31 49 -49 85 -33 65 -123 163 -161 175 -11 4 -19 9 -19 13 0 4 -12 20 -26 36
l-27 28 17 55 c36 114 182 322 301 428 87 78 197 153 238 162 15 3 27 9 27 14
0 4 21 15 48 23 26 8 72 24 102 34 50 18 181 46 255 55 55 6 199 -1 264 -13z
m-2230 -155 c35 -11 68 -15 96 -12 40 6 44 4 53 -21 18 -45 24 -92 18 -127 -6
-32 -7 -32 -54 -28 -26 2 -94 16 -151 30 -78 19 -120 24 -168 20 -48 -3 -63
-2 -63 8 0 18 49 133 71 165 9 14 24 37 33 53 l17 28 47 -49 c33 -34 64 -54
101 -67z m-119 -265 c19 -5 60 -16 90 -25 58 -17 115 -24 192 -26 27 -1 53 -8
59 -15 6 -8 18 -14 25 -14 8 0 22 -4 32 -10 35 -19 165 -70 181 -70 9 -1 64
-25 123 -54 104 -52 233 -141 290 -201 15 -16 43 -46 62 -65 18 -19 49 -46 70
-60 20 -14 51 -50 68 -80 18 -30 51 -83 75 -119 24 -35 46 -76 49 -90 2 -14 9
-41 15 -59 8 -26 7 -35 -5 -48 -38 -37 -6 -74 109 -129 51 -25 95 -48 97 -53
4 -10 76 -52 90 -52 15 0 77 -74 101 -119 11 -20 39 -63 64 -96 24 -33 45 -69
47 -80 2 -11 16 -73 31 -137 24 -103 27 -131 23 -235 -5 -114 -25 -196 -58
-236 -5 -7 -35 -45 -65 -84 -47 -62 -67 -78 -128 -108 -40 -20 -101 -52 -136
-71 l-64 -36 -121 4 c-112 3 -126 6 -190 36 -97 45 -164 101 -203 167 -39 65
-50 110 -69 267 -9 81 -58 104 -95 46 -18 -29 -19 -43 -14 -118 4 -47 11 -103
16 -125 19 -73 83 -189 130 -236 l46 -45 -44 -48 c-25 -26 -64 -59 -87 -73
-22 -14 -45 -30 -51 -37 -15 -18 -112 -66 -134 -66 -10 0 -34 -6 -53 -14 -92
-39 -273 -63 -328 -44 -14 6 -77 4 -155 -3 -144 -14 -221 -13 -278 2 -25 7
-76 6 -160 -2 -175 -17 -188 -16 -402 25 -43 8 -122 16 -175 17 -63 1 -112 8
-145 19 -27 10 -86 26 -130 36 -75 16 -149 46 -160 64 -3 5 -27 16 -54 25 -74
24 -183 114 -217 178 -24 46 -43 142 -44 214 0 78 39 219 80 285 17 26 30 60
30 73 0 41 -27 94 -54 107 -22 9 -29 8 -47 -8 -16 -14 -20 -28 -17 -59 3 -33
-2 -47 -29 -83 -18 -24 -33 -51 -33 -60 0 -10 -10 -42 -21 -72 -24 -61 -30
-95 -32 -190 l-2 -64 -50 2 c-113 5 -167 19 -220 56 -16 12 -37 26 -45 31 -9
6 -33 21 -53 33 -25 16 -51 50 -82 104 -25 44 -45 86 -45 93 0 8 -4 16 -9 20
-16 9 -23 107 -11 160 6 28 19 93 29 145 21 104 38 158 57 177 6 7 31 47 54
90 41 76 79 117 146 158 18 11 59 39 93 63 33 23 86 54 118 67 63 28 107 80
120 146 7 38 41 99 54 99 5 0 23 28 39 63 36 75 70 114 133 150 27 16 70 56
98 93 40 51 65 71 117 97 37 18 92 51 122 73 30 22 78 48 107 57 29 10 69 28
89 42 43 30 104 49 159 51 49 2 87 9 112 22 10 5 52 17 93 27 41 10 88 21 104
26 16 5 79 6 140 3 61 -3 138 -1 171 4 81 13 123 13 165 2z m1980 -2125 c6 -8
22 -17 33 -21 12 -4 33 -14 47 -24 14 -10 45 -22 70 -28 25 -6 77 -20 115 -30
48 -13 98 -18 160 -17 98 3 105 -1 105 -50 0 -35 15 -55 42 -55 10 0 32 -9 50
-20 18 -11 48 -20 66 -20 42 0 88 -23 128 -64 17 -17 47 -45 66 -62 20 -17 39
-42 43 -55 4 -13 21 -46 37 -72 27 -42 32 -60 38 -150 4 -56 3 -118 -1 -137
-5 -19 -9 -49 -9 -66 0 -17 -11 -51 -24 -75 -13 -24 -27 -60 -31 -79 -11 -55
-30 -76 -120 -136 l-84 -55 -113 -10 c-62 -5 -136 -12 -164 -15 -32 -4 -74 0
-111 9 -32 9 -88 18 -123 22 -36 4 -74 10 -85 15 -147 60 -168 63 -214 24 -17
-14 -48 -30 -68 -35 -21 -6 -83 -27 -138 -49 -145 -55 -172 -62 -213 -55 -22
3 -75 -2 -133 -15 -67 -14 -135 -20 -225 -20 -200 0 -405 10 -451 23 -38 10
-43 15 -43 40 0 40 -17 67 -42 67 -12 0 -49 -26 -87 -62 -151 -141 -198 -184
-216 -195 -11 -7 -54 -37 -95 -66 -65 -46 -85 -55 -135 -60 -33 -4 -82 -11
-109 -16 -70 -12 -206 -6 -248 12 -30 13 -110 28 -158 31 -55 4 -170 33 -194
50 -16 12 -57 49 -90 83 -54 54 -64 70 -80 130 -29 113 -14 237 34 270 11 8
20 18 20 23 0 18 74 118 126 168 30 30 54 59 54 65 0 18 -32 47 -52 47 -45 0
-119 -67 -213 -192 -113 -151 -122 -182 -102 -378 2 -22 -3 -25 -48 -33 -27
-4 -111 -9 -185 -10 -130 -1 -137 0 -187 26 -28 15 -78 36 -110 46 -48 16 -72
32 -132 91 -88 88 -108 134 -117 265 -8 117 -3 131 96 255 52 66 104 120 114
120 7 0 27 14 44 31 30 30 34 31 50 15 22 -19 152 -66 184 -66 20 0 65 -12
113 -30 11 -5 34 -13 50 -19 17 -6 73 -13 125 -16 156 -9 304 -29 385 -53 34
-10 102 -7 215 9 54 8 101 8 170 0 52 -6 145 -8 205 -5 61 3 173 4 250 4 124
-2 151 1 240 25 55 15 116 31 135 35 53 11 134 52 184 93 24 21 49 37 55 37
11 0 120 106 144 141 l16 22 60 -22 c41 -15 93 -24 158 -27 54 -3 107 -7 118
-9 42 -8 155 21 183 49 16 14 32 26 36 26 23 0 144 65 190 102 48 39 140 155
158 200 9 22 22 23 38 3z m771 -74 c42 -38 69 -81 69 -108 0 -20 -2 -21 -27
-8 -15 8 -50 17 -80 21 -37 4 -60 14 -78 32 -32 32 -29 41 19 57 21 8 43 18
49 24 14 14 11 15 48 -18z"/>
<path d="M2366 3620 c-110 -33 -131 -198 -33 -259 32 -20 41 -21 78 -11 74 20
121 95 105 170 -8 43 -44 87 -79 100 -34 11 -32 11 -71 0z"/>
<path d="M3229 3526 c-30 -17 -63 -85 -63 -130 0 -48 33 -106 70 -123 45 -22
113 -3 145 40 43 58 35 164 -14 206 -24 19 -108 24 -138 7z"/>
<path d="M2750 3363 c-44 -9 -80 -41 -80 -73 0 -81 72 -124 162 -98 45 13 63
32 71 74 11 58 -73 111 -153 97z"/>
</g>
</svg>
