<?xml version="1.0" encoding="UTF-8"?>
<svg version="1.1" xmlns="http://www.w3.org/2000/svg" width="600" height="600">
<path d="M0 0 C198 0 396 0 600 0 C600 198 600 396 600 600 C402 600 204 600 0 600 C0 402 0 204 0 0 Z " fill="#FEFEFE" transform="translate(0,0)"/>
<path d="M0 0 C1.0692849 -0.0076664 1.0692849 -0.0076664 2.16017151 -0.01548767 C4.50668838 -0.02933953 6.8529101 -0.02843031 9.19946289 -0.02612305 C10.83704232 -0.03001232 12.47462075 -0.03434746 14.11219788 -0.03910828 C17.54097771 -0.04656093 20.96965457 -0.04628608 24.3984375 -0.04101562 C28.78435105 -0.03522128 33.16984226 -0.05215557 37.555686 -0.0753603 C40.93667551 -0.09011796 44.31756377 -0.0909666 47.69857979 -0.08785057 C49.31525064 -0.08836273 50.93192732 -0.09358067 52.54856682 -0.10366249 C54.81260216 -0.1160498 57.07582072 -0.10922228 59.33984375 -0.09765625 C60.62604111 -0.09828568 61.91223846 -0.0989151 63.2374115 -0.0995636 C68.17044775 0.42830032 71.47002083 1.97392851 74.92211914 5.5246582 C79.27255479 12.12531918 83.73461914 22.33550229 83.73461914 30.2746582 C84.53784103 30.28274506 85.34106293 30.29083191 86.16862488 30.29916382 C93.74602403 30.37717261 101.32323236 30.46448213 108.90040112 30.56218529 C112.79570659 30.61208633 116.69098576 30.65841675 120.58642578 30.6965332 C124.34722301 30.73346447 128.10779682 30.77984538 131.86840248 30.83272171 C133.30163966 30.85122408 134.73492465 30.86634735 136.16823387 30.87800217 C138.17898366 30.89493514 140.18960871 30.92510292 142.20019531 30.95581055 C143.34381027 30.96913422 144.48742523 30.98245789 145.66569519 30.9961853 C149.43692135 31.33838482 152.4420052 32.10281879 155.28149414 34.67700195 C158.9475073 39.35473952 159.85867932 42.26754001 159.87506104 48.12431335 C159.88077118 49.34534256 159.88648132 50.56637177 159.8923645 51.82440186 C159.89360986 53.17980947 159.89473495 54.5352172 159.89575195 55.890625 C159.90038079 57.31649402 159.90540554 58.74236181 159.91079712 60.16822815 C159.92391939 64.04449662 159.93036608 67.92074777 159.93480778 71.79703498 C159.93773962 74.22014394 159.94184471 76.64324817 159.94631195 79.06635475 C159.95998828 86.65145524 159.96965349 94.23654492 159.97351384 101.82165688 C159.97799089 110.5700633 159.99552176 119.31831319 160.02451444 128.06667203 C160.04615728 134.83283452 160.05621956 141.59895307 160.05755496 148.3651498 C160.0586014 152.40413068 160.06447449 156.44296444 160.08237457 160.4819088 C160.09889969 164.28470584 160.10098938 168.08724591 160.09223557 171.89006615 C160.09146748 173.28157745 160.0957777 174.67310282 160.10569382 176.06457901 C160.20962721 191.56514906 160.20962721 191.56514906 155.56804276 197.85566235 C150.24279328 201.97719044 143.3754878 201.56242419 136.97373962 201.53535461 C136.00827369 201.53918016 135.04280775 201.54300571 134.04808527 201.54694718 C130.82236558 201.55724212 127.59682506 201.5532917 124.37109375 201.54931641 C122.05470109 201.55366473 119.73830986 201.55884828 117.42192078 201.56480408 C111.13699268 201.57819018 104.85212473 201.57877332 98.56718516 201.57624078 C93.32086661 201.57517112 88.07456022 201.58005415 82.82824427 201.5848462 C69.74684441 201.59657348 56.66547883 201.59571698 43.58407677 201.58928939 C32.22685399 201.58411748 20.8697169 201.59538432 9.51251107 201.61438761 C-2.15625693 201.63376226 -13.82498069 201.64173136 -25.49376482 201.63826436 C-32.04211351 201.63644969 -38.59038365 201.63910635 -45.13871956 201.6529789 C-51.2938872 201.66553099 -57.44888285 201.66363787 -63.60404778 201.65056801 C-65.86395195 201.64819723 -68.12386814 201.65095479 -70.38375854 201.65919113 C-73.46653494 201.66961731 -76.54872974 201.66159091 -79.63148499 201.64888 C-80.97550285 201.65994143 -80.97550285 201.65994143 -82.34667259 201.67122632 C-87.40653668 201.62727832 -90.87238539 201.06717272 -95.26538086 198.2746582 C-99.39915264 193.84561701 -100.51404905 189.12592432 -100.5328064 183.18449402 C-100.54133636 181.96071548 -100.54986633 180.73693695 -100.55865479 179.47607422 C-100.55795582 178.12792956 -100.5570328 176.779785 -100.5559082 175.43164062 C-100.56189557 174.00547433 -100.56870159 172.57931128 -100.57626343 171.15315247 C-100.59391064 167.28524877 -100.59861829 163.41743361 -100.599895 159.54949355 C-100.60131801 157.1307221 -100.60559047 154.71197305 -100.61088943 152.29320717 C-100.62938625 143.84845174 -100.63756058 135.40375939 -100.63598633 126.95898438 C-100.63478537 119.09785722 -100.65587945 111.23700482 -100.68747365 103.37594718 C-100.71366172 96.61822701 -100.72435255 89.86059644 -100.72307551 83.10282594 C-100.72256657 79.07054469 -100.72821172 75.03850762 -100.74943161 71.00627708 C-100.76885659 67.21158628 -100.76890981 63.41737151 -100.75439835 59.6226635 C-100.75231432 58.23437552 -100.75698695 56.84605742 -100.76911926 55.45782089 C-100.83294039 47.6456234 -100.62631211 41.8909036 -96.26538086 35.2746582 C-90.21614256 30.12637029 -83.92029324 30.86025693 -76.26538086 31.2746582 C-76.31758789 29.90180664 -76.31758789 29.90180664 -76.37084961 28.5012207 C-76.39791992 27.31270508 -76.42499023 26.12418945 -76.45288086 24.8996582 C-76.48768555 23.71629883 -76.52249023 22.53293945 -76.55834961 21.3137207 C-76.46166992 20.31083008 -76.36499023 19.30793945 -76.26538086 18.2746582 C-72.51856218 15.77677908 -69.57545582 15.98591058 -65.23803711 16.0090332 C-64.45271103 16.00711975 -63.66738495 16.0052063 -62.85826111 16.00323486 C-61.19814737 16.00187458 -59.53802295 16.00556011 -57.87792969 16.01391602 C-55.34082025 16.0246037 -52.80442118 16.01402308 -50.26733398 16.0012207 C-48.65340013 16.00254261 -47.03946672 16.00510564 -45.42553711 16.0090332 C-44.66813736 16.00498474 -43.91073761 16.00093628 -43.13038635 15.99676514 C-36.37197259 16.05671097 -36.37197259 16.05671097 -33.26538086 18.2746582 C-31.94308896 20.91924199 -32.16860892 22.95227121 -32.20288086 25.8996582 C-32.2119043 26.90254883 -32.22092773 27.90543945 -32.23022461 28.9387207 C-32.24182617 29.70958008 -32.25342773 30.48043945 -32.26538086 31.2746582 C-28.30538086 30.7796582 -28.30538086 30.7796582 -24.26538086 30.2746582 C-24.11504395 29.71069336 -23.96470703 29.14672852 -23.80981445 28.56567383 C-23.10488402 25.96334562 -22.37287313 23.36935718 -21.64038086 20.7746582 C-21.40448242 19.8877832 -21.16858398 19.0009082 -20.92553711 18.0871582 C-19.18844375 12.02960187 -16.94416165 6.65872334 -12.26538086 2.2746582 C-8.11801878 0.18975345 -4.60806707 0.01651715 0 0 Z " fill="#CBD1DC" transform="translate(269.265380859375,100.725341796875)"/>
<path d="M0 0 C1.42505859 0.36544922 1.42505859 0.36544922 2.87890625 0.73828125 C18.69529037 5.59600621 32.04819342 18.6624537 40.2109375 32.59765625 C50.12861094 51.45855924 51.21112368 70.62517738 46 91 C44.9406683 94.19682766 43.642309 97.06375058 42 100 C41.54496094 100.81855469 41.08992187 101.63710937 40.62109375 102.48046875 C35.16665582 111.89400263 28.1823691 123.85495869 17 127 C17 127.66 17 128.32 17 129 C14.33753623 130.30097661 11.67055529 131.59082283 9 132.875 C7.88431641 133.42220703 7.88431641 133.42220703 6.74609375 133.98046875 C-9.20136777 141.60751556 -29.94228853 141.690817 -46.66674805 136.20532227 C-52.03224763 134.23344486 -56.52293163 131.50025345 -61 128 C-62.36125 127.195625 -62.36125 127.195625 -63.75 126.375 C-66.37033074 124.77368677 -68.70113091 123.03614119 -71 121 C-71 120.34 -71 119.68 -71 119 C-71.556875 118.81566406 -72.11375 118.63132812 -72.6875 118.44140625 C-76.07636749 116.32908851 -77.87873975 113.23035168 -80 109.9375 C-80.44351807 109.25792236 -80.88703613 108.57834473 -81.34399414 107.87817383 C-87.72291514 97.94239204 -92.34811116 86.92573106 -93 75 C-93.06445312 73.84757812 -93.12890625 72.69515625 -93.1953125 71.5078125 C-93.90361567 52.63070938 -88.14607686 34.19446411 -75.3125 20.0625 C-54.85627593 -1.38058983 -28.25432867 -7.54987312 0 0 Z " fill="#CFD5E0" transform="translate(321,149)"/>
<path d="M0 0 C1.42505859 0.36544922 1.42505859 0.36544922 2.87890625 0.73828125 C18.69529037 5.59600621 32.04819342 18.6624537 40.2109375 32.59765625 C50.12861094 51.45855924 51.21112368 70.62517738 46 91 C44.9406683 94.19682766 43.642309 97.06375058 42 100 C41.54496094 100.81855469 41.08992187 101.63710937 40.62109375 102.48046875 C35.16665582 111.89400263 28.1823691 123.85495869 17 127 C17 127.66 17 128.32 17 129 C14.33753623 130.30097661 11.67055529 131.59082283 9 132.875 C7.88431641 133.42220703 7.88431641 133.42220703 6.74609375 133.98046875 C-9.20136777 141.60751556 -29.94228853 141.690817 -46.66674805 136.20532227 C-52.03224763 134.23344486 -56.52293163 131.50025345 -61 128 C-62.36125 127.195625 -62.36125 127.195625 -63.75 126.375 C-66.37033074 124.77368677 -68.70113091 123.03614119 -71 121 C-71 120.34 -71 119.68 -71 119 C-71.556875 118.81566406 -72.11375 118.63132812 -72.6875 118.44140625 C-76.07636749 116.32908851 -77.87873975 113.23035168 -80 109.9375 C-80.44351807 109.25792236 -80.88703613 108.57834473 -81.34399414 107.87817383 C-87.72291514 97.94239204 -92.34811116 86.92573106 -93 75 C-93.06445312 73.84757812 -93.12890625 72.69515625 -93.1953125 71.5078125 C-93.90361567 52.63070938 -88.14607686 34.19446411 -75.3125 20.0625 C-54.85627593 -1.38058983 -28.25432867 -7.54987312 0 0 Z M-59.9453125 34.09765625 C-68.54317165 44.6495743 -72.36368272 55.48776147 -72.3125 69 C-72.32861328 69.85078125 -72.34472656 70.7015625 -72.36132812 71.578125 C-72.36914173 81.76706111 -68.04710351 89.34596904 -63 98 C-62.44892578 98.99580078 -62.44892578 98.99580078 -61.88671875 100.01171875 C-56.25276482 109.12848057 -43.98904309 114.49485114 -33.9375 117.25 C-17.02233785 120.54400526 -3.07164266 116.38109511 11 107 C20.98222144 97.8520698 27.66525076 87.38073286 28.33984375 73.69921875 C28.38692074 71.7581104 28.41934972 69.8165943 28.4375 67.875 C28.4478125 66.95678467 28.458125 66.03856934 28.46875 65.0925293 C28.29207611 51.3966224 22.51931724 39.77659609 13 30 C10.83468832 29.05563651 10.83468832 29.05563651 9 29 C9 28.34 9 27.68 9 27 C6.46317484 25.677356 3.92122349 24.36682639 1.375 23.0625 C0.66214844 22.68931641 -0.05070312 22.31613281 -0.78515625 21.93164062 C-20.51215866 11.88715775 -45.30112817 18.30663821 -59.9453125 34.09765625 Z " fill="#FDFDFE" transform="translate(321,149)"/>
<path d="M0 0 C0.8090126 0.4046196 1.61802521 0.8092392 2.45155334 1.22612 C3.52078537 1.76082413 4.5900174 2.29552826 5.69165039 2.84643555 C7.2764193 3.63898994 7.2764193 3.63898994 8.89320374 4.44755554 C10.83414575 5.41743075 12.77589678 6.38569059 14.71885681 7.35151672 C16.97391434 8.47715779 19.20597412 9.64099781 21.4375 10.8125 C22.19998047 11.18697266 22.96246094 11.56144531 23.74804688 11.94726562 C29.74618989 15.14175882 32.29910091 18.83974365 35 25 C35.2894751 25.65460205 35.5789502 26.3092041 35.87719727 26.98364258 C36.64449874 28.80655183 37.35422499 30.65335542 38.0625 32.5 C39.59589608 36.47578596 41.15893875 40.40260038 42.90625 44.2890625 C45.21617137 49.43147223 47.32544618 54.64889895 49.4375 59.875 C52.85488561 68.3124783 52.85488561 68.3124783 56.5625 76.625 C58.80270262 81.42543418 60.74379016 86.32438717 62.6875 91.25 C66.09464326 99.88279791 69.74885055 108.3898941 73.48339844 116.88549805 C76.15801629 122.99316853 78.67947637 129.11369758 80.96484375 135.37890625 C82.00835163 138.1396988 82.00835163 138.1396988 83.62890625 141.21484375 C85 144 85 144 85 146 C75.45525941 146.0695871 65.91060649 146.12285542 56.36566734 146.15543652 C51.9333028 146.17107579 47.50111214 146.1922822 43.06884766 146.22631836 C38.78945843 146.25897398 34.5102362 146.27686609 30.23073196 146.28463173 C28.60008746 146.29016412 26.96945183 146.3009676 25.33887863 146.31719017 C23.05042701 146.33904734 20.76266072 146.34196353 18.47412109 146.34057617 C16.52220352 146.35056892 16.52220352 146.35056892 14.53085327 146.36076355 C9.89876868 145.88748212 6.45367324 144.55750704 3.25 141.125 C0.71942657 136.82302517 -0.24986789 133.30451831 -0.24050903 128.31156921 C-0.24325836 127.17719925 -0.24600769 126.04282928 -0.24884033 124.87408447 C-0.24164978 123.63906189 -0.23445923 122.40403931 -0.22705078 121.1315918 C-0.22734283 119.82388321 -0.22763489 118.51617462 -0.22793579 117.1688385 C-0.22850886 113.59068107 -0.21676196 110.01265814 -0.20278788 106.43453193 C-0.19027293 102.69226755 -0.18910941 98.94999997 -0.18673706 95.2077179 C-0.18052454 88.12466126 -0.16411681 81.04166648 -0.14403808 73.95863706 C-0.12167199 65.89338702 -0.11068387 57.828134 -0.10064721 49.76286066 C-0.07975037 33.17520425 -0.04457883 16.58761002 0 0 Z " fill="#B9C0CB" transform="translate(169,156)"/>
<path d="M0 0 C1.28785652 0.00424484 1.28785652 0.00424484 2.60173035 0.00857544 C5.3322875 0.0197318 8.06251145 0.04482791 10.79296875 0.0703125 C12.64908379 0.08034818 14.50520399 0.089473 16.36132812 0.09765625 C20.90116921 0.11965624 25.44076256 0.15415469 29.98046875 0.1953125 C29.32046875 0.5253125 28.66046875 0.8553125 27.98046875 1.1953125 C26.01538224 9.67134509 26.65435639 19.13089565 26.41796875 27.8203125 C26.3746716 29.31641562 26.33105419 30.81250951 26.28710938 32.30859375 C26.18120693 35.93740111 26.07962695 39.56631385 25.98046875 43.1953125 C28.95046875 43.5253125 31.92046875 43.8553125 34.98046875 44.1953125 C34.98046875 44.5253125 34.98046875 44.8553125 34.98046875 45.1953125 C33.11455078 45.25138672 33.11455078 45.25138672 31.2109375 45.30859375 C22.14519705 45.64128984 13.56941034 45.99241288 4.98046875 49.1953125 C4.23023438 49.47246094 3.48 49.74960938 2.70703125 50.03515625 C-16.80914016 58.0128193 -28.63816317 71.98768687 -38.01953125 90.1953125 C-43.03695136 88.65401351 -47.63388075 87.16207607 -52.01953125 84.1953125 C-53.00953125 83.5353125 -53.99953125 82.8753125 -55.01953125 82.1953125 C-55.01953125 81.5353125 -55.01953125 80.8753125 -55.01953125 80.1953125 C-55.74446777 80.08300293 -56.4694043 79.97069336 -57.21630859 79.85498047 C-60.16474107 79.16114102 -62.25141865 78.14666675 -64.87109375 76.640625 C-65.79656006 76.1139624 -66.72202637 75.5872998 -67.67553711 75.04467773 C-69.68440786 73.87794357 -71.69302716 72.71077638 -73.70141602 71.54321289 C-78.66473498 68.66368553 -83.61404626 65.85496837 -88.7578125 63.30859375 C-101.25488201 56.98404554 -101.25488201 56.98404554 -103.33203125 52.125 C-103.46588742 48.78696167 -103.04552619 46.36616754 -102.01953125 43.1953125 C-101.78234375 42.40511719 -101.54515625 41.61492187 -101.30078125 40.80078125 C-99.66837845 36.72733166 -97.3200566 33.81432517 -93.30078125 31.8046875 C-88.32868012 30.4765235 -83.1153769 30.91944717 -78.01953125 31.1953125 C-78.07173828 29.82246094 -78.07173828 29.82246094 -78.125 28.421875 C-78.15207031 27.23335937 -78.17914063 26.04484375 -78.20703125 24.8203125 C-78.24183594 23.63695313 -78.27664062 22.45359375 -78.3125 21.234375 C-78.21582031 20.23148438 -78.11914062 19.22859375 -78.01953125 18.1953125 C-74.27271257 15.69743338 -71.32960621 15.90656488 -66.9921875 15.9296875 C-66.20686142 15.92777405 -65.42153534 15.9258606 -64.6124115 15.92388916 C-62.95229776 15.92252888 -61.29217334 15.92621441 -59.63208008 15.93457031 C-57.09497064 15.94525799 -54.55857157 15.93467738 -52.02148438 15.921875 C-50.40755052 15.9231969 -48.79361711 15.92575993 -47.1796875 15.9296875 C-46.42228775 15.92563904 -45.664888 15.92159058 -44.88453674 15.91741943 C-38.12612298 15.97736527 -38.12612298 15.97736527 -35.01953125 18.1953125 C-33.69723936 20.83989629 -33.92275931 22.87292551 -33.95703125 25.8203125 C-33.96605469 26.82320312 -33.97507812 27.82609375 -33.984375 28.859375 C-33.99597656 29.63023437 -34.00757813 30.40109375 -34.01953125 31.1953125 C-30.05953125 30.7003125 -30.05953125 30.7003125 -26.01953125 30.1953125 C-25.86919434 29.63134766 -25.71885742 29.06738281 -25.56396484 28.48632812 C-24.85903442 25.88399992 -24.12702352 23.29001148 -23.39453125 20.6953125 C-23.15863281 19.8084375 -22.92273438 18.9215625 -22.6796875 18.0078125 C-20.77435073 11.3635612 -18.19252643 4.55514725 -11.8894043 0.99072266 C-7.89132539 -0.11737952 -4.12884159 -0.0515191 0 0 Z " fill="#C5CCD7" transform="translate(271.01953125,100.8046875)"/>
<path d="M0 0 C1.07314453 0.00322266 2.14628906 0.00644531 3.25195312 0.00976562 C4.37150391 0.01814453 5.49105469 0.02652344 6.64453125 0.03515625 C8.34125977 0.04192383 8.34125977 0.04192383 10.07226562 0.04882812 C12.86724052 0.06062127 15.66210945 0.07707975 18.45703125 0.09765625 C18.45703125 2.07765625 18.45703125 4.05765625 18.45703125 6.09765625 C16.80703125 6.09765625 15.15703125 6.09765625 13.45703125 6.09765625 C13.78703125 6.75765625 14.11703125 7.41765625 14.45703125 8.09765625 C14.99719722 12.60494276 15.0602565 16.04759748 12.76953125 20.03515625 C7.45742207 24.77298336 2.25186491 24.33514558 -4.54296875 24.09765625 C-4.21296875 25.08765625 -3.88296875 26.07765625 -3.54296875 27.09765625 C-2.69734375 27.1234375 -1.85171875 27.14921875 -0.98046875 27.17578125 C6.16580056 27.53309472 11.41823733 28.14921407 17.45703125 32.09765625 C18.67465856 35.75053818 18.84778976 38.25519761 18.45703125 42.09765625 C15.30763266 47.06034493 12.13288784 49.35395844 6.45703125 51.09765625 C3.66603451 51.40227831 1.1712362 51.56421786 -1.60546875 51.53515625 C-2.62737305 51.56512695 -2.62737305 51.56512695 -3.66992188 51.59570312 C-8.75075331 51.5908224 -11.64301384 50.28529063 -15.54296875 47.09765625 C-17.11752614 43.94854146 -16.89095993 41.57756809 -16.54296875 38.09765625 C-15.69734375 37.10765625 -14.85171875 36.11765625 -13.98046875 35.09765625 C-11.10409829 32.23931192 -11.10409829 32.23931192 -11.73046875 28.22265625 C-11.99859375 27.19140625 -12.26671875 26.16015625 -12.54296875 25.09765625 C-11.22296875 24.43765625 -9.90296875 23.77765625 -8.54296875 23.09765625 C-8.54296875 22.43765625 -8.54296875 21.77765625 -8.54296875 21.09765625 C-9.18234375 20.82953125 -9.82171875 20.56140625 -10.48046875 20.28515625 C-12.54296875 19.09765625 -12.54296875 19.09765625 -13.54296875 16.09765625 C-14.1583087 10.91121956 -14.4555866 7.30625827 -11.23046875 3.03515625 C-7.36414139 0.24780397 -4.64388459 -0.02457082 0 0 Z " fill="#B6B9BD" transform="translate(312.54296875,447.90234375)"/>
<path d="M0 0 C2.97 0 5.94 0 9 0 C9 1.65 9 3.3 9 5 C9.66 5 10.32 5 11 5 C11.33 4.01 11.66 3.02 12 2 C15.734572 -0.48971467 18.6786359 -0.50839578 23 0 C27.37286 1.42958885 30.17906754 3.39330957 32.3046875 7.58203125 C34.28956124 14.48448545 34.33687872 23.06682993 31.375 29.6875 C29.2011968 33.18846725 26.76085508 35.23018584 23 37 C17.40784078 37.6867564 16.04830003 37.02898002 11 34 C10.67 39.94 10.34 45.88 10 52 C6.7 52 3.4 52 0 52 C0 34.84 0 17.68 0 0 Z " fill="#B6B9BD" transform="translate(209,367)"/>
<path d="M0 0 C2.31 0 4.62 0 7 0 C7.33 1.32 7.66 2.64 8 4 C8.763125 3.34 9.52625 2.68 10.3125 2 C14.82186506 -0.99910266 19.79192072 -0.80242999 25 0 C27.45332965 1.0882839 28.94646934 2.22397349 31 4 C31.61875 3.34 32.2375 2.68 32.875 2 C37.24622388 -0.79758329 40.93654608 -0.69955613 46 0 C49.68623011 1.61272567 50.75355 2.630325 53 6 C53.22705078 9.00268555 53.22705078 9.00268555 53.1953125 12.63671875 C53.18886719 13.93544922 53.18242187 15.23417969 53.17578125 16.57226562 C53.1590706 17.94401307 53.14214071 19.31575786 53.125 20.6875 C53.11496674 22.07095718 53.10584149 23.45442127 53.09765625 24.83789062 C53.07404967 28.22543452 53.04112037 31.61263072 53 35 C50.03 35 47.06 35 44 35 C43.970271 33.9330188 43.970271 33.9330188 43.93994141 32.84448242 C43.84475133 29.62511184 43.73504771 26.4063955 43.625 23.1875 C43.5940625 22.06794922 43.563125 20.94839844 43.53125 19.79492188 C43.47324219 18.18520508 43.47324219 18.18520508 43.4140625 16.54296875 C43.3826416 15.55321045 43.3512207 14.56345215 43.31884766 13.54370117 C43.16226567 10.75924906 43.16226567 10.75924906 41 8 C36.63290803 8.24930733 36.63290803 8.24930733 33.34375 10.875 C31.37202311 15.46041138 31.42871699 19.86829713 31.3125 24.8125 C31.27833984 25.79154297 31.24417969 26.77058594 31.20898438 27.77929688 C31.12681099 30.18580324 31.06172097 32.59288225 31 35 C28.03 35 25.06 35 22 35 C21.97494385 34.28344238 21.9498877 33.56688477 21.92407227 32.82861328 C21.80830249 29.59388486 21.68549031 26.35946159 21.5625 23.125 C21.52318359 21.99707031 21.48386719 20.86914062 21.44335938 19.70703125 C21.40146484 18.63066406 21.35957031 17.55429687 21.31640625 16.4453125 C21.27974854 15.45031738 21.24309082 14.45532227 21.20532227 13.43017578 C21.15040468 10.99220499 21.15040468 10.99220499 20 9 C17.36 9 14.72 9 12 9 C10.45322172 12.46532608 9.72532479 15.29534327 9.5859375 19.08203125 C9.52792969 20.47905273 9.52792969 20.47905273 9.46875 21.90429688 C9.4378125 22.86400391 9.406875 23.82371094 9.375 24.8125 C9.31699219 26.28106445 9.31699219 26.28106445 9.2578125 27.77929688 C9.16389629 30.1858998 9.08087436 32.59292351 9 35 C6.03 35 3.06 35 0 35 C0 23.45 0 11.9 0 0 Z " fill="#B4B7BB" transform="translate(175,448)"/>
<path d="M0 0 C4.13412595 1.59898425 6.26720902 4.05446325 8.9375 7.5 C11.05346836 14.47024872 11.21436054 22.36537683 8 29 C5.63947766 32.38341536 3.84875402 34.50694887 0 36 C-5.74875602 36.63875067 -11.14302603 36.79584599 -16.5 34.5 C-21.38854502 29.61145498 -24.28341176 25.59818728 -24.5 18.5 C-24.27570821 13.4744621 -23.06642303 9.56335086 -21 5 C-20.34 5 -19.68 5 -19 5 C-19 4.34 -19 3.68 -19 3 C-13.30984168 -1.38034829 -6.84539054 -0.83499585 0 0 Z " fill="#C5CAD0" transform="translate(408,448)"/>
<path d="M0 0 C14.43935359 -0.90120792 14.43935359 -0.90120792 19.66796875 3.3203125 C24.4401585 9.33802978 24.57090937 14.99670739 24.41796875 22.41796875 C23.82421045 27.50653285 22.6404981 29.44040186 19 33 C13.35408633 37.08407157 7.72824001 36.76264685 1 36 C-3.47500822 33.88025926 -6.2809988 31.12885367 -9 27 C-10.84301108 21.47096676 -10.90182509 14.62553623 -8.75 9.1875 C-7.08702618 6.15851197 -5.71530013 4.12132823 -3 2 C-2.01 2 -1.02 2 0 2 C0 1.34 0 0.68 0 0 Z " fill="#C5CACF" transform="translate(434,448)"/>
<path d="M0 0 C4.33007374 2.5471022 7.24225249 5.25739152 9 10.125 C9.061875 11.0325 9.12375 11.94 9.1875 12.875 C9.249375 13.61878906 9.31125 14.36257813 9.375 15.12890625 C9.67547381 21.27922955 8.76357736 25.79770245 5.1875 30.875 C0.25766398 35.50605808 -5.18769255 35.22013675 -11.640625 35.1484375 C-15.8058238 34.78936864 -17.85457659 33.83292341 -20.8125 30.875 C-25.36493858 25.3641533 -25.42279552 20.22656079 -25.19140625 13.1953125 C-24.65994188 8.53815047 -23.85159205 6.45957011 -20.8125 2.875 C-14.26150796 -2.23477379 -7.83781542 -2.31279799 0 0 Z " fill="#C4CAD0" transform="translate(315.8125,368.125)"/>
<path d="M0 0 C5.07065685 3.21056665 7.55457342 7.52236268 8.9296875 13.234375 C9.74315083 19.61364007 9.24574685 24.2782056 5.390625 29.5390625 C2.20623874 33.23431286 -0.17182301 34.97716029 -5.09765625 35.64453125 C-11.1733944 35.91595598 -15.84367331 35.76637394 -20.703125 31.9140625 C-24.59763317 27.12938104 -25.50163352 22.81449517 -25.5078125 16.734375 C-25.52714844 15.4659375 -25.54648438 14.1975 -25.56640625 12.890625 C-24.84291179 7.55841383 -22.41696027 4.54649334 -18.6328125 0.859375 C-12.92750316 -1.74304681 -5.97829819 -2.21084235 0 0 Z " fill="#B6B9BC" transform="translate(158.0703125,448.765625)"/>
<path d="M0 0 C4.34788875 2.67562384 7.12489689 5.31426028 9.25 10 C10.46636325 16.83391873 9.49359721 22.80403569 6.61328125 29.0625 C4.74819272 31.71317022 3.00109846 33.26246413 0.25 35 C-3.30859375 35.53125 -3.30859375 35.53125 -7.1875 35.5 C-8.46496094 35.5103125 -9.74242187 35.520625 -11.05859375 35.53125 C-15.9200175 34.83161653 -19.05879387 33.03035174 -22.2109375 29.24609375 C-25.35561343 23.02393581 -25.90011471 16.71547033 -24.2421875 9.91796875 C-22.65126527 5.72122562 -20.13063997 2.87354397 -16.75 0 C-11.17575278 -1.85808241 -5.63253203 -1.50200854 0 0 Z " fill="#C5CACF" transform="translate(383.75,368)"/>
<path d="M0 0 C3.3 0 6.6 0 10 0 C10.33 5.28 10.66 10.56 11 16 C12.98 15.01 14.96 14.02 17 13 C20.09985317 12.38919149 22.89842689 12.3762519 26 13 C29.09632649 15.43753362 30.82300487 17.73450731 33 21 C33.22705078 23.91088867 33.22705078 23.91088867 33.1953125 27.41796875 C33.18886719 28.67158203 33.18242187 29.92519531 33.17578125 31.21679688 C33.15902344 32.52712891 33.14226562 33.83746094 33.125 35.1875 C33.11496639 36.52277987 33.1058412 37.85806689 33.09765625 39.19335938 C33.07405292 42.46242015 33.04112594 45.73112028 33 49 C29.7 49 26.4 49 23 49 C22.97494385 48.25314941 22.9498877 47.50629883 22.92407227 46.73681641 C22.80831787 43.36602733 22.68549872 39.99553217 22.5625 36.625 C22.52318359 35.449375 22.48386719 34.27375 22.44335938 33.0625 C22.40146484 31.94101562 22.35957031 30.81953125 22.31640625 29.6640625 C22.27974854 28.62717285 22.24309082 27.5902832 22.20532227 26.52197266 C22.15835777 24.00574834 22.15835777 24.00574834 21 22 C18.03 22 15.06 22 12 22 C11.16091609 25.35633563 10.8163612 28.00785488 10.68359375 31.421875 C10.64169922 32.44667969 10.59980469 33.47148437 10.55664062 34.52734375 C10.51732422 35.59082031 10.47800781 36.65429688 10.4375 37.75 C10.39431641 38.82894531 10.35113281 39.90789062 10.30664062 41.01953125 C10.20071099 43.67954211 10.09986544 46.33975456 10 49 C6.7 49 3.4 49 0 49 C0 32.83 0 16.66 0 0 Z " fill="#B6B9BD" transform="translate(250,354)"/>
<path d="M0 0 C2.60797351 1.26347163 5.21123407 2.53535224 7.8125 3.8125 C8.55048828 4.16892578 9.28847656 4.52535156 10.04882812 4.89257812 C10.76103516 5.24384766 11.47324219 5.59511719 12.20703125 5.95703125 C12.8616333 6.27647705 13.51623535 6.59592285 14.19067383 6.92504883 C16.12573579 8.07470175 17.43100991 9.39756599 19 11 C23.54163309 13.79485114 28.09158691 15.93329975 33 18 C32.71125 19.0415625 32.4225 20.083125 32.125 21.15625 C27.80712805 37.48422417 26.01694887 57.72336807 34.81640625 73.0625 C35.40228516 74.0215625 35.40228516 74.0215625 36 75 C37.09235773 76.93242644 38.17519157 78.87025794 39.25 80.8125 C39.77078125 81.72644531 40.2915625 82.64039063 40.828125 83.58203125 C42 86 42 86 42 89 C41.67 89.66 41.34 90.32 41 91 C39.16601562 90.85546875 39.16601562 90.85546875 37 90 C35.59960938 87.55078125 35.59960938 87.55078125 34.34375 84.3125 C33.87839844 83.13816406 33.41304687 81.96382813 32.93359375 80.75390625 C32.45516929 79.50281812 31.9773082 78.25151442 31.5 77 C30.55326874 74.5828687 29.60537459 72.16619252 28.65625 69.75 C28.2039502 68.58839355 27.75165039 67.42678711 27.28564453 66.22998047 C25.90450574 62.76008564 24.4184569 59.3544626 22.87597656 55.95410156 C21.53528012 52.9633172 20.33150986 49.92194864 19.125 46.875 C18.87306885 46.24174805 18.6211377 45.60849609 18.36157227 44.95605469 C17.31190311 42.3170725 16.26662323 39.67638633 15.22509766 37.03417969 C12.02600538 28.91950824 8.67829697 20.91204148 5 13 C4.2452779 11.3563267 3.49499668 9.71060416 2.75 8.0625 C2.43546875 7.37285156 2.1209375 6.68320313 1.796875 5.97265625 C0.99956456 3.99892206 0.4957965 2.06680459 0 0 Z " fill="#D6DBE5" transform="translate(200,173)"/>
<path d="M0 0 C0.83208984 -0.00524185 1.66417969 -0.0104837 2.52148438 -0.0158844 C4.27993657 -0.02230504 6.03843171 -0.02096702 7.796875 -0.01245117 C10.49035897 -0.00393673 13.18172541 -0.03270674 15.875 -0.06445312 C17.5833327 -0.0660651 19.29166916 -0.06548768 21 -0.0625 C21.80630859 -0.07373398 22.61261719 -0.08496796 23.44335938 -0.09654236 C28.99577824 -0.02717436 28.99577824 -0.02717436 31.50854492 2.26904297 C32.88030032 5.26386773 32.86103525 7.71436387 32.8125 10.99609375 C32.80863281 12.13175781 32.80476563 13.26742187 32.80078125 14.4375 C32.5 17.43359375 32.5 17.43359375 30.5 20.43359375 C27.63848823 20.75020038 24.99769255 20.87759194 22.1328125 20.8671875 C20.88611282 20.87505028 20.88611282 20.87505028 19.61422729 20.8830719 C17.85399493 20.88950153 16.09371966 20.88814294 14.33349609 20.87963867 C11.64212153 20.87114777 8.95288235 20.89984358 6.26171875 20.93164062 C4.55208397 20.9332532 2.84244543 20.93267402 1.1328125 20.9296875 C0.32852814 20.94092148 -0.47575623 20.95215546 -1.30441284 20.96372986 C-4.90411032 20.91894578 -7.06333769 20.75309032 -10.00854492 18.59814453 C-12.06783406 15.60949541 -11.9989175 13.47015928 -11.9375 9.87109375 C-11.93556641 8.16759766 -11.93556641 8.16759766 -11.93359375 6.4296875 C-10.92947311 -0.50869565 -5.97350312 -0.02174855 0 0 Z " fill="#FCFDFE" transform="translate(378.5,145.56640625)"/>
<path d="M0 0 C2.64 0 5.28 0 8 0 C8.66 0.99 9.32 1.98 10 3 C10.53625 2.51144531 11.0725 2.02289063 11.625 1.51953125 C14.61438448 -0.3930848 16.47684755 -0.36975123 20 -0.3125 C21.546875 -0.30669922 21.546875 -0.30669922 23.125 -0.30078125 C26.04779869 0.00500068 27.62052943 0.30257595 30 2 C32.97237514 6.01382113 33.35829705 8.8888566 33.29296875 13.83203125 C33.2784668 15.77045898 33.2784668 15.77045898 33.26367188 17.74804688 C33.23860985 19.1028707 33.21321506 20.45768841 33.1875 21.8125 C33.17244013 23.18683445 33.15875401 24.56118468 33.14648438 25.93554688 C33.11116628 29.29076632 33.06183851 32.64518166 33 36 C29.7 36 26.4 36 23 36 C22.98018066 35.25838623 22.96036133 34.51677246 22.93994141 33.75268555 C22.84477072 30.39726166 22.73505906 27.04246714 22.625 23.6875 C22.5940625 22.52025391 22.563125 21.35300781 22.53125 20.15039062 C22.49257813 19.03212891 22.45390625 17.91386719 22.4140625 16.76171875 C22.3826416 15.73006592 22.3512207 14.69841309 22.31884766 13.63549805 C22.17325371 10.77156764 22.17325371 10.77156764 20 8 C16.56769552 8.26393501 16.56769552 8.26393501 13 9 C10.77464206 12.33803691 10.71021596 13.62819711 10.5859375 17.54296875 C10.52792969 19.15268555 10.52792969 19.15268555 10.46875 20.79492188 C10.42234375 22.47424805 10.42234375 22.47424805 10.375 24.1875 C10.31699219 25.88422852 10.31699219 25.88422852 10.2578125 27.61523438 C10.16347467 30.4099925 10.07788348 33.20474278 10 36 C6.7 36 3.4 36 0 36 C0 24.12 0 12.24 0 0 Z " fill="#C6CBD1" transform="translate(466,448)"/>
<path d="M0 0 C7 0 7 0 8.9375 1.5 C9.288125 1.995 9.63875 2.49 10 3 C10.53753906 2.51402344 11.07507813 2.02804687 11.62890625 1.52734375 C15.97311979 -1.2709882 21.01842577 -0.62014125 26 0 C29.71531388 2.08057577 31.45629378 4.09062504 33 8 C33.22705078 11.02441406 33.22705078 11.02441406 33.1953125 14.515625 C33.18886719 15.76601563 33.18242187 17.01640625 33.17578125 18.3046875 C33.15902344 19.60664063 33.14226562 20.90859375 33.125 22.25 C33.11597656 23.56742187 33.10695313 24.88484375 33.09765625 26.2421875 C33.07408533 29.49497462 33.04118022 32.74739589 33 36 C29.7 36 26.4 36 23 36 C22.97494385 35.25314941 22.9498877 34.50629883 22.92407227 33.73681641 C22.80831787 30.36602733 22.68549872 26.99553217 22.5625 23.625 C22.52318359 22.449375 22.48386719 21.27375 22.44335938 20.0625 C22.40146484 18.94101562 22.35957031 17.81953125 22.31640625 16.6640625 C22.27974854 15.62717285 22.24309082 14.5902832 22.20532227 13.52197266 C22.15835777 11.00574834 22.15835777 11.00574834 21 9 C19.72125 8.938125 18.4425 8.87625 17.125 8.8125 C16.40570313 8.77769531 15.68640625 8.74289062 14.9453125 8.70703125 C13.98238281 8.85205078 13.98238281 8.85205078 13 9 C10.77464206 12.33803691 10.71021596 13.62819711 10.5859375 17.54296875 C10.52792969 19.15268555 10.52792969 19.15268555 10.46875 20.79492188 C10.42234375 22.47424805 10.42234375 22.47424805 10.375 24.1875 C10.31699219 25.88422852 10.31699219 25.88422852 10.2578125 27.61523438 C10.16347467 30.4099925 10.07788348 33.20474278 10 36 C6.7 36 3.4 36 0 36 C0 24.12 0 12.24 0 0 Z " fill="#B6BABD" transform="translate(258,448)"/>
<path d="M0 0 C1.10988281 -0.01417969 2.21976562 -0.02835937 3.36328125 -0.04296875 C6.7836836 0.19416843 9.49723443 0.96641499 12.6875 2.1875 C12.0275 4.4975 11.3675 6.8075 10.6875 9.1875 C6.0675 8.5275 1.4475 7.8675 -3.3125 7.1875 C-2.7784221 11.31970635 -2.7784221 11.31970635 0.26953125 12.75 C1.33558594 13.224375 2.40164063 13.69875 3.5 14.1875 C7.63431159 16.04063845 10.82040266 17.61381943 13.6875 21.1875 C14.24976974 25.06091377 14.59829682 27.57100946 12.6640625 31.00390625 C10.52305118 33.69639018 8.97204863 35.09265046 5.6875 36.1875 C3.19644976 36.28385462 0.74009297 36.3268246 -1.75 36.3125 C-3.06871094 36.31507813 -4.38742187 36.31765625 -5.74609375 36.3203125 C-9.3125 36.1875 -9.3125 36.1875 -13.3125 35.1875 C-13.3125 32.2175 -13.3125 29.2475 -13.3125 26.1875 C-12.52875 26.5175 -11.745 26.8475 -10.9375 27.1875 C-6.31888131 28.46160171 -2.07000644 28.35673936 2.6875 28.1875 C2.6875 26.5375 2.6875 24.8875 2.6875 23.1875 C2.11902344 23.04054688 1.55054688 22.89359375 0.96484375 22.7421875 C-4.6662482 21.1064446 -9.85813415 19.16521974 -13.3125 14.1875 C-14.11679581 11.01438776 -14.08554214 8.36422005 -13.3125 5.1875 C-9.7172529 0.22853848 -5.81759413 0.03355014 0 0 Z " fill="#C6CAD0" transform="translate(365.3125,447.8125)"/>
<path d="M0 0 C1.98 0 3.96 0 6 0 C6 2.64 6 5.28 6 8 C9.63 8 13.26 8 17 8 C17 10.31 17 12.62 17 15 C13.7 15 10.4 15 7 15 C7.33 21.6 7.66 28.2 8 35 C10.97 35 13.94 35 17 35 C17 37.31 17 39.62 17 42 C12.66651263 44.46645199 8.88910168 44.56748502 4 44 C1.07060527 42.75344905 -0.43231751 41.90700124 -2.11669922 39.21582031 C-3.16340492 36.59008761 -3.22812871 34.61906879 -3.1953125 31.796875 C-3.18564453 30.32734375 -3.18564453 30.32734375 -3.17578125 28.828125 C-3.15902344 27.81234375 -3.14226562 26.7965625 -3.125 25.75 C-3.11597656 24.71875 -3.10695313 23.6875 -3.09765625 22.625 C-3.07412011 20.08309713 -3.04124023 17.5416672 -3 15 C-4.65 15 -6.3 15 -8 15 C-8.3125 12.6875 -8.3125 12.6875 -8 10 C-6.8553125 9.319375 -6.8553125 9.319375 -5.6875 8.625 C-1.92444942 6.34966709 -1.46210311 4.07849814 0 0 Z " fill="#C5CBD1" transform="translate(337,360)"/>
<path d="M0 0 C1.30324219 0.02449219 2.60648438 0.04898437 3.94921875 0.07421875 C7.3125 0.3125 7.3125 0.3125 10.3125 1.3125 C9.4375 7.0625 9.4375 7.0625 8.3125 9.3125 C4.0225 9.3125 -0.2675 9.3125 -4.6875 9.3125 C-6.63373277 13.20496554 -6.96020443 14.7030617 -6.9375 18.875 C-6.94265625 19.82503906 -6.9478125 20.77507812 -6.953125 21.75390625 C-6.86326075 24.55349273 -6.86326075 24.55349273 -4.6875 27.3125 C-2.38845589 27.71539329 -2.38845589 27.71539329 0.1875 27.5625 C1.48300781 27.53929687 1.48300781 27.53929687 2.8046875 27.515625 C5.0901752 27.33050762 7.11448797 26.94634533 9.3125 26.3125 C9.3125 28.9525 9.3125 31.5925 9.3125 34.3125 C4.12084015 37.47814625 -1.82141287 36.91078252 -7.6875 36.3125 C-11.71244903 34.84475543 -14.51494504 31.97153993 -16.6875 28.3125 C-18.992447 20.97562644 -18.65209474 12.85888974 -15.1484375 6.03125 C-10.76105751 0.86962648 -6.59151266 -0.19020285 0 0 Z " fill="#B6B9BC" transform="translate(116.6875,447.6875)"/>
<path d="M0 0 C3.3 0 6.6 0 10 0 C10 11.88 10 23.76 10 36 C6.7 36 3.4 36 0 36 C0 24.12 0 12.24 0 0 Z " fill="#B8BABE" transform="translate(238,448)"/>
<path d="M0 0 C12.04439814 -0.27373632 19.41558292 1.31738263 30 7 C27.49067374 8.67288417 25.96458077 9.44698534 23.1875 10.3125 C17.7728327 12.04020634 12.46140015 14.02594648 7.13671875 16.01171875 C4 17 4 17 0 17 C0 11.39 0 5.78 0 0 Z " fill="#B7BCC8" transform="translate(296,167)"/>
<path d="M0 0 C5.28 0 10.56 0 16 0 C16 1.98 16 3.96 16 6 C14.35 6 12.7 6 11 6 C11.33 6.66 11.66 7.32 12 8 C12.53151198 12.5134952 12.86526046 15.89138503 10 19.5625 C9.34 20.036875 8.68 20.51125 8 21 C6.68 18.69 5.36 16.38 4 14 C3.62875 14.66 3.2575 15.32 2.875 16 C1 18 1 18 -2.0625 18.375 C-5 18 -5 18 -7 16 C-7.265625 14.125 -7.265625 14.125 -7.25 12 C-7.25515625 11.29875 -7.2603125 10.5975 -7.265625 9.875 C-7 8 -7 8 -5 6 C-1.875 5.875 -1.875 5.875 1 6 C0.67 4.02 0.34 2.04 0 0 Z " fill="#C5C9CE" transform="translate(315,448)"/>
<path d="M0 0 C0.680625 -0.0103125 1.36125 -0.020625 2.0625 -0.03125 C4 0.5 4 0.5 5.73046875 2.12109375 C7.39543021 5.24097537 7.36457957 7.5411199 7.3125 11.0625 C7.30863281 12.19816406 7.30476563 13.33382813 7.30078125 14.50390625 C7 17.5 7 17.5 5 20.5 C-0.5113342 21.83338731 -0.5113342 21.83338731 -3 21.5 C-5.23046875 19.91015625 -5.23046875 19.91015625 -7 17.5 C-7.49609375 14.40625 -7.49609375 14.40625 -7.4375 11 C-7.43621094 9.8759375 -7.43492187 8.751875 -7.43359375 7.59375 C-6.75611272 2.7598313 -5.13876971 -0.07786015 0 0 Z " fill="#FAFCFD" transform="translate(376,374.5)"/>
<path d="M0 0 C2.97 0 5.94 0 9 0 C11.8568312 4.76138533 12.84180048 8.56067385 12 14 C10.5 17.5 10.5 17.5 9 20 C6.03 20 3.06 20 0 20 C-2.8568312 15.23861467 -3.84180048 11.43932615 -3 6 C-1.5 2.5 -1.5 2.5 0 0 Z " fill="#FAFBFC" transform="translate(145,456)"/>
<path d="M0 0 C3.5625 0.5 3.5625 0.5 6 1.8125 C8.52894055 6.16227774 8.18723107 10.59658749 7.5625 15.5 C6.39005696 18.04878922 5.49952622 19.56297378 3.5625 21.5 C0.08282473 21.88663059 -1.75020239 22.01052862 -4.609375 19.88671875 C-6.99562075 16.77134235 -6.94188525 14.88826242 -6.875 11 C-6.87371094 9.8759375 -6.87242187 8.751875 -6.87109375 7.59375 C-6.18047136 2.66606592 -4.99357885 0.72633874 0 0 Z " fill="#FBFCFD" transform="translate(307.4375,374.5)"/>
<path d="M0 0 C1.6328125 1.14453125 1.6328125 1.14453125 3 3 C3.3984375 5.99609375 3.3984375 5.99609375 3.375 9.4375 C3.38273437 10.57058594 3.39046875 11.70367187 3.3984375 12.87109375 C2.96749598 16.25525216 2.49593634 17.69476441 0 20 C-2.76142303 20.52799676 -5.16365545 20.18598981 -8 20 C-11.22914769 14.88718283 -11.99636425 9.91957587 -11 4 C-8.14548447 -0.79091203 -5.27458145 -1.58237443 0 0 Z " fill="#FBFCFD" transform="translate(405,456)"/>
<path d="M0 0 C1.6328125 1.14453125 1.6328125 1.14453125 3 3 C3.3984375 5.99609375 3.3984375 5.99609375 3.375 9.4375 C3.38273437 10.57058594 3.39046875 11.70367187 3.3984375 12.87109375 C2.96749598 16.25525216 2.49593634 17.69476441 0 20 C-2.76142303 20.52799676 -5.16365545 20.18598981 -8 20 C-11.09473168 14.97106101 -11.7961165 10.76388349 -11 5 C-9.6875 2 -9.6875 2 -8 0 C-4.65044556 -1.11651815 -3.32740404 -0.99822121 0 0 Z " fill="#FAFDFD" transform="translate(445,456)"/>
<path d="M0 0 C3.5 0.5 3.5 0.5 5.19140625 2.125 C6.89393268 5.21495842 6.93346867 7.48467683 6.9375 11 C6.95683594 12.1240625 6.97617188 13.248125 6.99609375 14.40625 C6.40368346 18.10065116 5.43750113 19.2577973 2.5 21.5 C0 22 0 22 -2.5 21.5 C-5.43750113 19.2577973 -6.40368346 18.10065116 -6.99609375 14.40625 C-6.97675781 13.2821875 -6.95742187 12.158125 -6.9375 11 C-6.93621094 9.8759375 -6.93492187 8.751875 -6.93359375 7.59375 C-6.23616215 2.61748129 -5.03846772 0.7197811 0 0 Z " fill="#FAFBFC" transform="translate(225.5,374.5)"/>
<path d="M0 0 C1.1653125 0.00515625 2.330625 0.0103125 3.53125 0.015625 C4.6965625 0.01046875 5.861875 0.0053125 7.0625 0 C10.03125 0.265625 10.03125 0.265625 12.03125 2.265625 C11.96875 4.765625 11.96875 4.765625 11.03125 7.265625 C7.06281137 9.86991285 1.64323905 10.06883658 -2.96875 9.265625 C-4.75390625 7.875 -4.75390625 7.875 -5.96875 6.265625 C-5.59535207 2.15824776 -4.21238243 0.37689738 0 0 Z " fill="#F8FAFB" transform="translate(309.96875,483.734375)"/>
<path d="M0 0 C3 0.25 3 0.25 5 2.25 C5.31537716 6.58643601 5.44897847 8.57653229 3 12.25 C0 12.5625 0 12.5625 -3 12.25 C-5 10.25 -5 10.25 -5.265625 8.375 C-5.26046875 7.67375 -5.2553125 6.9725 -5.25 6.25 C-5.25515625 5.54875 -5.2603125 4.8475 -5.265625 4.125 C-4.77431879 0.65695617 -3.28862917 0.27405243 0 0 Z " fill="#FAFBFC" transform="translate(313,453.75)"/>
<path d="M0 0 C0.721875 0.00257813 1.44375 0.00515625 2.1875 0.0078125 C2.909375 0.00523437 3.63125 0.00265625 4.375 0 C6.1875 0.1328125 6.1875 0.1328125 7.1875 1.1328125 C7.375 4.0703125 7.375 4.0703125 7.1875 7.1328125 C5.1875 9.1328125 5.1875 9.1328125 2.1875 9.3828125 C-0.8125 9.1328125 -0.8125 9.1328125 -2.8125 7.1328125 C-3 4.0703125 -3 4.0703125 -2.8125 1.1328125 C-1.8125 0.1328125 -1.8125 0.1328125 0 0 Z " fill="#B8B9BD" transform="translate(240.8125,434.8671875)"/>
<path d="M0 0 C2.0625 0.4375 2.0625 0.4375 4 1 C3.34 1 2.68 1 2 1 C0.95966524 9.8647012 0.67996633 18.71213558 0.4375 27.625 C0.39420285 29.12110312 0.35058544 30.61719701 0.30664062 32.11328125 C0.20073818 35.74208861 0.0991582 39.37100135 0 43 C-0.33 43 -0.66 43 -1 43 C-1.02464574 37.03686834 -1.042834 31.07376605 -1.05493164 25.1105957 C-1.05997278 23.08031702 -1.06680557 21.05004198 -1.07543945 19.01977539 C-1.08751467 16.10822653 -1.09323034 13.1967255 -1.09765625 10.28515625 C-1.10281754 9.3716188 -1.10797882 8.45808136 -1.11329651 7.51686096 C-1.11349168 5.34424573 -1.06211805 3.17172704 -1 1 C-0.67 0.67 -0.34 0.34 0 0 Z " fill="#BCC3CE" transform="translate(297,101)"/>
</svg>
